<?xml version="1.0" standalone="no"?>
<!DOCTYPE svg PUBLIC "-//W3C//DTD SVG 20010904//EN"
 "http://www.w3.org/TR/2001/REC-SVG-20010904/DTD/svg10.dtd">
<svg version="1.0" xmlns="http://www.w3.org/2000/svg"
 width="512.000000pt" height="512.000000pt" viewBox="0 0 512.000000 512.000000"
 preserveAspectRatio="xMidYMid meet">
<metadata>
Created by potrace 1.11, written by Peter Selinger 2001-2013
</metadata>
<g transform="translate(0.000000,512.000000) scale(0.100000,-0.100000)"
fill="#000000" stroke="none">
<path d="M2935 4900 c-104 -16 -132 -21 -205 -41 -180 -49 -251 -86 -710 -379
-201 -128 -381 -242 -400 -255 -19 -13 -118 -76 -220 -140 -102 -65 -210 -137
-240 -161 -310 -241 -489 -615 -484 -1014 2 -208 34 -359 115 -538 26 -59 30
-78 21 -92 -89 -142 -159 -333 -178 -483 -3 -23 -7 -53 -10 -67 -5 -34 -6
-239 0 -270 2 -14 7 -47 10 -75 6 -50 11 -70 41 -180 78 -289 300 -583 584
-774 125 -85 367 -189 481 -207 19 -3 38 -8 42 -10 3 -2 28 -7 55 -9 26 -3 61
-8 76 -11 56 -11 274 -5 372 11 256 41 351 85 827 390 99 63 227 145 338 215
123 78 126 80 383 245 188 120 301 219 397 346 106 141 173 281 215 449 30
119 38 188 39 320 0 118 -6 182 -29 290 -3 14 -7 34 -9 46 -8 41 -59 180 -87
236 -24 47 -26 58 -14 68 24 20 112 210 139 300 39 134 56 244 57 385 1 85 -7
202 -16 235 -2 8 -7 31 -10 50 -24 146 -121 364 -232 518 -96 135 -281 314
-374 364 -13 8 -44 26 -68 42 -111 71 -281 136 -450 173 -123 26 -353 38 -456
23z"/>
</g>
</svg>
