<?xml version="1.0" standalone="no"?>
<!DOCTYPE svg PUBLIC "-//W3C//DTD SVG 20010904//EN"
 "http://www.w3.org/TR/2001/REC-SVG-20010904/DTD/svg10.dtd">
<svg version="1.0" xmlns="http://www.w3.org/2000/svg"
 width="512.000000pt" height="512.000000pt" viewBox="0 0 512.000000 512.000000"
 preserveAspectRatio="xMidYMid meet">
<metadata>
Created by potrace 1.11, written by Peter Selinger 2001-2013
</metadata>
<g transform="translate(0.000000,512.000000) scale(0.100000,-0.100000)"
fill="#000000" stroke="none">
<path d="M2389 4765 c-3 -2 -31 -6 -64 -10 -78 -7 -106 -11 -147 -21 -18 -4
-42 -9 -53 -10 -28 -3 -190 -49 -245 -69 -25 -9 -55 -18 -66 -20 -12 -3 -35
-12 -50 -20 -16 -8 -33 -15 -37 -15 -4 0 -43 -16 -85 -36 -42 -20 -83 -37 -89
-37 -7 0 -13 -3 -13 -6 0 -4 -20 -15 -45 -26 -25 -11 -45 -24 -45 -28 0 -4
-13 -13 -30 -18 -16 -6 -30 -15 -30 -20 0 -5 -6 -9 -13 -9 -7 0 -23 -9 -35
-20 -12 -12 -22 -18 -22 -15 0 3 -8 -3 -18 -12 -11 -10 -32 -27 -48 -38 -29
-20 -148 -118 -172 -142 -7 -7 -18 -13 -24 -13 -6 0 -9 -2 -7 -4 3 -3 -35 -46
-83 -97 -48 -51 -88 -96 -88 -100 0 -4 -16 -24 -35 -45 -19 -22 -35 -45 -35
-51 0 -7 -4 -13 -8 -13 -4 0 -15 -12 -24 -27 -9 -16 -28 -41 -42 -57 -13 -17
-23 -33 -20 -38 3 -4 1 -8 -5 -8 -5 0 -16 -12 -23 -27 -21 -41 -42 -77 -49
-83 -3 -3 -12 -20 -20 -37 -8 -18 -18 -33 -22 -33 -5 0 -6 -4 -2 -9 3 -5 1
-12 -4 -16 -12 -7 -67 -127 -63 -137 1 -5 -2 -8 -6 -8 -6 0 -42 -84 -47 -110
-1 -3 -7 -25 -14 -50 -7 -25 -15 -56 -18 -70 -8 -39 -11 -55 -13 -57 -3 -4 -5
-12 -14 -63 -5 -25 -10 -54 -12 -65 -2 -10 -6 -35 -9 -55 -3 -20 -7 -45 -9
-55 -6 -34 -17 -137 -21 -198 -1 -32 -6 -61 -9 -64 -3 -3 -1 -14 5 -24 7 -14
6 -19 -3 -19 -9 0 -9 -3 -1 -11 7 -7 8 -21 2 -41 -4 -17 -6 -34 -4 -39 3 -4 7
-62 10 -129 3 -67 7 -125 9 -129 2 -3 7 -35 11 -71 4 -36 9 -68 11 -72 6 -9
16 -64 18 -95 0 -13 3 -23 6 -23 3 0 7 -12 8 -26 1 -14 5 -31 9 -37 4 -7 9
-21 10 -32 2 -11 7 -29 12 -40 5 -11 24 -58 42 -105 18 -47 43 -104 56 -127
12 -23 23 -48 23 -56 0 -8 7 -17 15 -21 8 -3 15 -15 15 -26 0 -11 4 -20 9 -20
5 0 12 -11 15 -25 4 -14 11 -25 17 -25 6 0 8 -4 5 -9 -3 -5 1 -11 9 -15 8 -3
15 -12 15 -21 0 -8 5 -15 11 -15 5 0 7 -4 4 -10 -3 -5 -3 -10 2 -10 4 0 19
-17 33 -38 14 -20 30 -43 37 -50 7 -7 20 -26 30 -42 9 -17 21 -30 25 -30 4 0
8 -4 8 -10 0 -5 8 -18 17 -28 10 -10 34 -38 53 -62 57 -71 169 -179 270 -261
30 -24 57 -47 58 -51 2 -5 9 -8 15 -8 7 0 26 -13 43 -30 18 -16 35 -26 38 -23
3 4 6 1 6 -6 0 -7 5 -9 10 -6 6 3 10 2 10 -3 0 -5 14 -15 30 -22 17 -7 30 -16
30 -19 0 -4 16 -14 35 -21 20 -8 41 -20 46 -26 6 -7 18 -10 26 -7 11 4 14 2 9
-5 -4 -8 0 -12 11 -12 10 0 27 -7 37 -15 10 -8 23 -12 27 -9 5 3 9 1 9 -4 0
-9 23 -19 64 -28 11 -3 25 -9 32 -15 6 -5 20 -12 30 -14 11 -3 74 -20 140 -39
67 -19 137 -37 155 -40 19 -3 43 -7 54 -10 11 -2 43 -7 70 -11 28 -4 61 -9 75
-11 25 -4 52 -7 205 -21 130 -11 485 -7 485 6 0 3 15 6 33 7 94 1 337 64 464
120 17 8 38 14 47 14 9 0 16 5 16 10 0 6 8 10 18 10 10 0 22 3 26 8 4 4 11 7
14 7 17 1 162 78 162 86 0 5 3 8 8 7 13 -4 72 32 72 44 0 6 3 9 6 5 4 -3 12
-1 20 6 33 29 44 37 54 37 5 0 10 4 10 8 0 5 19 22 43 39 23 17 72 60 110 95
37 35 70 62 72 59 3 -2 5 0 5 5 0 6 21 32 46 60 26 27 65 74 87 104 22 30 44
57 49 58 4 2 8 10 8 17 0 7 3 15 7 17 7 3 32 37 83 114 25 37 84 137 99 169 8
17 19 33 24 36 5 3 8 9 7 13 -1 4 13 37 31 74 18 37 34 69 34 72 1 3 6 16 12
30 6 14 10 27 10 30 0 3 6 16 13 30 8 14 15 30 16 35 1 6 13 44 27 85 14 41
29 92 33 112 3 21 9 38 13 38 4 0 7 8 7 18 1 24 11 74 19 94 3 9 8 31 10 50 2
18 4 33 5 33 1 0 4 18 6 40 8 68 13 100 14 100 5 0 11 151 11 250 0 105 -7
250 -11 250 -1 0 -3 15 -5 34 -2 19 -6 45 -10 59 -3 13 -8 43 -12 65 -3 23
-10 48 -15 55 -6 6 -8 12 -5 12 3 0 1 15 -4 33 -5 17 -12 45 -15 62 -3 16 -10
35 -16 42 -6 7 -8 13 -5 13 10 0 -96 255 -113 270 -3 3 -12 19 -20 35 -8 17
-22 42 -32 56 -10 14 -15 29 -11 33 3 3 1 6 -5 6 -6 0 -20 18 -30 40 -10 22
-22 37 -27 33 -4 -5 -6 -2 -3 6 2 8 -3 22 -11 31 -26 28 -51 60 -51 66 0 3 -6
11 -12 18 -7 7 -30 33 -52 59 -41 49 -126 138 -126 131 0 -2 -19 16 -43 39
-24 23 -54 49 -66 57 -13 8 -33 23 -44 34 -31 26 -156 106 -166 106 -5 0 -11
4 -13 9 -4 12 -196 111 -214 111 -8 0 -14 5 -14 10 0 6 -11 10 -25 10 -14 0
-25 5 -25 10 0 6 -7 10 -15 10 -9 0 -33 9 -54 20 -21 10 -41 16 -45 13 -3 -4
-6 -1 -6 6 0 7 -4 10 -9 7 -4 -3 -25 4 -47 14 -21 11 -44 20 -51 20 -7 0 -13
5 -13 10 0 6 -8 10 -18 10 -10 0 -24 6 -31 13 -11 10 -12 9 -6 -3 6 -10 1 -8
-13 4 -12 11 -22 16 -22 12 0 -3 -15 0 -34 8 -19 8 -37 12 -40 8 -3 -3 -6 1
-6 8 0 7 -3 11 -6 8 -3 -4 -34 2 -70 12 -35 10 -64 16 -64 13 0 -3 -7 0 -15 7
-8 7 -15 10 -15 7 0 -3 -17 -1 -37 4 -71 15 -108 21 -153 24 -25 2 -45 4 -45
5 0 9 -294 13 -375 5 -30 -3 -79 -7 -109 -10 -30 -2 -78 -9 -108 -15 -30 -7
-57 -9 -60 -7 -2 3 22 11 54 18 32 7 65 14 73 16 8 2 34 5 57 7 23 3 46 7 50
9 4 3 28 8 53 11 25 3 54 8 65 10 32 6 182 18 272 21 89 3 123 14 101 32 -7 6
-31 14 -53 18 -45 8 -380 17 -386 10z"/>
</g>
</svg>
